<?xml version="1.0" encoding="utf-8"?>
<!-- Svg Vector Icons : http://www.onlinewebfonts.com/icon -->
<!DOCTYPE svg PUBLIC "-//W3C//DTD SVG 1.1//EN" "http://www.w3.org/Graphics/SVG/1.1/DTD/svg11.dtd">
<svg version="1.1" xmlns="http://www.w3.org/2000/svg" xmlns:xlink="http://www.w3.org/1999/xlink" x="0px" y="0px" viewBox="0 0 1000 1000" enable-background="new 0 0 1000 1000" xml:space="preserve">
<metadata> Svg Vector Icons : http://www.onlinewebfonts.com/icon </metadata>
<g><path d="M500,255c-137.2,0-245,107.8-245,245c0,137.2,107.8,245,245,245s245-107.8,245-245C745,362.8,637.2,255,500,255L500,255z M500,10C230.5,10,10,230.5,10,500s220.5,490,490,490s490-220.5,490-490S769.5,10,500,10L500,10z M500,892c-215.6,0-392-176.4-392-392c0-215.6,176.4-392,392-392c215.6,0,392,176.4,392,392C892,715.6,715.6,892,500,892L500,892z"/></g>
</svg>